# xmcd
#
# Track frame offsets: 
#        150
#        9234
#        24964
#        35637
#        49651
#        56965
#        69083
#
# Disc length: 1086 seconds
#
# Revision: 0
# Processed by: cddbd v1.5.2PL0 Copyright (c) Steve Scherf et al.
# Submitted via: ExactAudioCopy v0.99pb4
#
DISCID=4f043c07
DTITLE=Texas Meat Purveyors - Come and Take it
DYEAR=2008
DGENRE=Bluegrass
TTITLE0=Who Knew?
TTITLE1=Beautiful Wold
TTITLE2=Teenagers are Assholes
TTITLE3=I'm not Crying
TTITLE4=Crying Holy Unto the Lord
TTITLE5=Why I gotta be so Famous
TTITLE6=Don't Shoot the President
EXTD=
EXTT0=
EXTT1=
EXTT2=
EXTT3=
EXTT4=
EXTT5=
EXTT6=
PLAYORDER=
